<?xml version="1.0" encoding="utf-8"?>
<!-- Generator: Adobe Adobe Illustrator 29.2.0, SVG Export Plug-In . SVG Version: 6.00 Build 0)  -->
<svg version="1.1" id="Layer_1" xmlns="http://www.w3.org/2000/svg" xmlns:xlink="http://www.w3.org/1999/xlink" x="0px" y="0px"
	 viewBox="0 0 1280 720" style="enable-background:new 0 0 1280 720;" xml:space="preserve">
<style type="text/css">
	.st0{fill:#DDDDDD;stroke:#000000;stroke-width:20;stroke-miterlimit:10;}
</style>
<g>
	<path class="st0" d="M207.23,30.03c24.36,13.55,46.02,30.88,63.66,50.95"/>
	<path class="st0" d="M320,123.31c16.86,10.24,31.65,23.88,43.22,39.86"/>
	<path class="st0" d="M403.8,201.64c13.78,15.59,27.55,31.18,41.33,46.77"/>
	<path class="st0" d="M488.98,282.35c20.28,12.68,40.55,25.37,60.83,38.05c4.67,2.92,9.51,6.01,12.36,10.72"/>
	<path class="st0" d="M621.73,363.79c25,21.86,52.27,41.12,81.22,57.38"/>
	<path class="st0" d="M758.77,453.1c20.84,20.67,43.27,39.73,67.03,56.96"/>
	<path class="st0" d="M994.53,675.81c2.58,11.64,13.03,19.58,22.75,26.48c14.59,10.35,29.18,20.7,43.77,31.05"/>
	<path class="st0" d="M877.08,556.24c25.99,14.35,48.87,34.31,66.62,58.11"/>
</g>
</svg>
